<mxfile host="app.diagrams.net" agent="Mozilla/5.0 (Windows NT 10.0; Win64; x64) AppleWebKit/537.36 (KHTML, like Gecko) Chrome/133.0.0.0 Safari/537.36" version="26.0.12">
  <diagram id="C5RBs43oDa-KdzZeNtuy" name="Page-1">
    <mxGraphModel dx="1723" dy="708" grid="1" gridSize="10" guides="1" tooltips="1" connect="1" arrows="1" fold="1" page="1" pageScale="1" pageWidth="827" pageHeight="1169" math="0" shadow="0">
      <root>
        <mxCell id="WIyWlLk6GJQsqaUBKTNV-0" />
        <mxCell id="WIyWlLk6GJQsqaUBKTNV-1" parent="WIyWlLk6GJQsqaUBKTNV-0" />
        <mxCell id="xYQhOIxSLyX6GgqdLLuX-4" style="edgeStyle=orthogonalEdgeStyle;rounded=0;orthogonalLoop=1;jettySize=auto;html=1;exitX=0.5;exitY=1;exitDx=0;exitDy=0;exitPerimeter=0;entryX=0.5;entryY=0;entryDx=0;entryDy=0;" edge="1" parent="WIyWlLk6GJQsqaUBKTNV-1" source="xYQhOIxSLyX6GgqdLLuX-1" target="xYQhOIxSLyX6GgqdLLuX-2">
          <mxGeometry relative="1" as="geometry" />
        </mxCell>
        <mxCell id="xYQhOIxSLyX6GgqdLLuX-1" value="mulai" style="strokeWidth=2;html=1;shape=mxgraph.flowchart.start_1;whiteSpace=wrap;" vertex="1" parent="WIyWlLk6GJQsqaUBKTNV-1">
          <mxGeometry x="180" y="60" width="100" height="60" as="geometry" />
        </mxCell>
        <mxCell id="xYQhOIxSLyX6GgqdLLuX-5" style="edgeStyle=orthogonalEdgeStyle;rounded=0;orthogonalLoop=1;jettySize=auto;html=1;exitX=0.5;exitY=1;exitDx=0;exitDy=0;entryX=0.5;entryY=0;entryDx=0;entryDy=0;" edge="1" parent="WIyWlLk6GJQsqaUBKTNV-1" source="xYQhOIxSLyX6GgqdLLuX-2" target="xYQhOIxSLyX6GgqdLLuX-3">
          <mxGeometry relative="1" as="geometry" />
        </mxCell>
        <mxCell id="xYQhOIxSLyX6GgqdLLuX-2" value="&lt;font face=&quot;monospace&quot;&gt;total = 0, i = 1&lt;/font&gt;" style="rounded=0;whiteSpace=wrap;html=1;" vertex="1" parent="WIyWlLk6GJQsqaUBKTNV-1">
          <mxGeometry x="170" y="160" width="120" height="60" as="geometry" />
        </mxCell>
        <mxCell id="xYQhOIxSLyX6GgqdLLuX-7" style="edgeStyle=orthogonalEdgeStyle;rounded=0;orthogonalLoop=1;jettySize=auto;html=1;exitX=0.5;exitY=1;exitDx=0;exitDy=0;entryX=0.5;entryY=0;entryDx=0;entryDy=0;" edge="1" parent="WIyWlLk6GJQsqaUBKTNV-1" source="xYQhOIxSLyX6GgqdLLuX-3" target="xYQhOIxSLyX6GgqdLLuX-6">
          <mxGeometry relative="1" as="geometry" />
        </mxCell>
        <mxCell id="xYQhOIxSLyX6GgqdLLuX-3" value="1 kurang dari&amp;nbsp;&lt;div&gt;10&lt;/div&gt;" style="rhombus;whiteSpace=wrap;html=1;" vertex="1" parent="WIyWlLk6GJQsqaUBKTNV-1">
          <mxGeometry x="190" y="260" width="80" height="80" as="geometry" />
        </mxCell>
        <mxCell id="xYQhOIxSLyX6GgqdLLuX-9" style="edgeStyle=orthogonalEdgeStyle;rounded=0;orthogonalLoop=1;jettySize=auto;html=1;exitX=0.5;exitY=1;exitDx=0;exitDy=0;entryX=0.5;entryY=0;entryDx=0;entryDy=0;" edge="1" parent="WIyWlLk6GJQsqaUBKTNV-1" source="xYQhOIxSLyX6GgqdLLuX-6" target="xYQhOIxSLyX6GgqdLLuX-8">
          <mxGeometry relative="1" as="geometry" />
        </mxCell>
        <mxCell id="xYQhOIxSLyX6GgqdLLuX-6" value="input" style="shape=parallelogram;perimeter=parallelogramPerimeter;whiteSpace=wrap;html=1;fixedSize=1;" vertex="1" parent="WIyWlLk6GJQsqaUBKTNV-1">
          <mxGeometry x="170" y="380" width="120" height="60" as="geometry" />
        </mxCell>
        <mxCell id="xYQhOIxSLyX6GgqdLLuX-12" value="" style="edgeStyle=orthogonalEdgeStyle;rounded=0;orthogonalLoop=1;jettySize=auto;html=1;" edge="1" parent="WIyWlLk6GJQsqaUBKTNV-1" source="xYQhOIxSLyX6GgqdLLuX-8" target="xYQhOIxSLyX6GgqdLLuX-10">
          <mxGeometry relative="1" as="geometry" />
        </mxCell>
        <mxCell id="xYQhOIxSLyX6GgqdLLuX-8" value="total += angka" style="rounded=0;whiteSpace=wrap;html=1;" vertex="1" parent="WIyWlLk6GJQsqaUBKTNV-1">
          <mxGeometry x="170" y="480" width="120" height="60" as="geometry" />
        </mxCell>
        <mxCell id="xYQhOIxSLyX6GgqdLLuX-14" style="edgeStyle=orthogonalEdgeStyle;rounded=0;orthogonalLoop=1;jettySize=auto;html=1;exitX=0.5;exitY=1;exitDx=0;exitDy=0;entryX=0.5;entryY=0;entryDx=0;entryDy=0;" edge="1" parent="WIyWlLk6GJQsqaUBKTNV-1" source="xYQhOIxSLyX6GgqdLLuX-10" target="xYQhOIxSLyX6GgqdLLuX-13">
          <mxGeometry relative="1" as="geometry" />
        </mxCell>
        <mxCell id="xYQhOIxSLyX6GgqdLLuX-10" value="rata rata = total / 10" style="rounded=0;whiteSpace=wrap;html=1;" vertex="1" parent="WIyWlLk6GJQsqaUBKTNV-1">
          <mxGeometry x="170" y="584.5" width="120" height="60" as="geometry" />
        </mxCell>
        <mxCell id="xYQhOIxSLyX6GgqdLLuX-13" value="output" style="shape=parallelogram;perimeter=parallelogramPerimeter;whiteSpace=wrap;html=1;fixedSize=1;" vertex="1" parent="WIyWlLk6GJQsqaUBKTNV-1">
          <mxGeometry x="170" y="690" width="120" height="60" as="geometry" />
        </mxCell>
      </root>
    </mxGraphModel>
  </diagram>
</mxfile>
